<svg width="55" height="55" viewBox="0 0 55 55" fill="none" xmlns="http://www.w3.org/2000/svg">
<path fill-rule="evenodd" clip-rule="evenodd" d="M11.457 27.5004C11.4576 19.8474 16.8641 13.2605 24.3702 11.768C31.8763 10.2754 39.3914 14.293 42.3196 21.3636C45.2479 28.4343 42.7737 36.5888 36.4102 40.8403C30.0467 45.0917 21.5662 44.256 16.1549 38.8442C13.1466 35.8356 11.4567 31.7551 11.457 27.5004Z" stroke="currentColor" stroke-width="3.5" stroke-linecap="round" stroke-linejoin="round"/>
<path d="M21.4844 25.7504C20.5179 25.7504 19.7344 26.5339 19.7344 27.5004C19.7344 28.4669 20.5179 29.2504 21.4844 29.2504V25.7504ZM27.5 29.2504C28.4665 29.2504 29.25 28.4669 29.25 27.5004C29.25 26.5339 28.4665 25.7504 27.5 25.7504V29.2504ZM27.5 25.7504C26.5335 25.7504 25.75 26.5339 25.75 27.5004C25.75 28.4669 26.5335 29.2504 27.5 29.2504V25.7504ZM33.5156 29.2504C34.4821 29.2504 35.2656 28.4669 35.2656 27.5004C35.2656 26.5339 34.4821 25.7504 33.5156 25.7504V29.2504ZM29.25 27.5004C29.25 26.5339 28.4665 25.7504 27.5 25.7504C26.5335 25.7504 25.75 26.5339 25.75 27.5004H29.25ZM25.75 33.5161C25.75 34.4826 26.5335 35.2661 27.5 35.2661C28.4665 35.2661 29.25 34.4826 29.25 33.5161H25.75ZM25.75 27.5004C25.75 28.4669 26.5335 29.2504 27.5 29.2504C28.4665 29.2504 29.25 28.4669 29.25 27.5004H25.75ZM29.25 21.4848C29.25 20.5183 28.4665 19.7348 27.5 19.7348C26.5335 19.7348 25.75 20.5183 25.75 21.4848H29.25ZM21.4844 27.5004V29.2504H27.5V27.5004V25.7504H21.4844V27.5004ZM27.5 27.5004V29.2504H33.5156V27.5004V25.7504H27.5V27.5004ZM27.5 27.5004H25.75V33.5161H27.5H29.25V27.5004H27.5ZM27.5 27.5004H29.25V21.4848H27.5H25.75V27.5004H27.5Z" fill="currentColor"/>
</svg>
