<svg width="55" height="55" viewBox="0 0 55 55" fill="none" xmlns="http://www.w3.org/2000/svg">
<path fill-rule="evenodd" clip-rule="evenodd" d="M11.457 27.5C11.4567 33.4881 14.7917 38.9779 20.106 41.7375C25.4203 44.497 31.8293 44.067 36.7272 40.6221L43.5404 41.25V27.5C43.5404 18.6404 36.3583 11.4583 27.4987 11.4583C18.6391 11.4583 11.457 18.6404 11.457 27.5Z" stroke="black" stroke-width="3.5" stroke-linecap="round" stroke-linejoin="round"/>
<path d="M20.625 30.3333C19.6585 30.3333 18.875 31.1168 18.875 32.0833C18.875 33.0498 19.6585 33.8333 20.625 33.8333V30.3333ZM29.7917 33.8333C30.7582 33.8333 31.5417 33.0498 31.5417 32.0833C31.5417 31.1168 30.7582 30.3333 29.7917 30.3333V33.8333ZM20.625 23.4583C19.6585 23.4583 18.875 24.2418 18.875 25.2083C18.875 26.1748 19.6585 26.9583 20.625 26.9583V23.4583ZM34.375 26.9583C35.3415 26.9583 36.125 26.1748 36.125 25.2083C36.125 24.2418 35.3415 23.4583 34.375 23.4583V26.9583ZM20.625 33.8333H29.7917V30.3333H20.625V33.8333ZM20.625 26.9583H34.375V23.4583H20.625V26.9583Z" fill="black"/>
</svg>
