<svg width="50" height="50" viewBox="0 0 50 50" fill="none" xmlns="http://www.w3.org/2000/svg">
<path fill-rule="evenodd" clip-rule="evenodd" d="M10.418 29.7095C10.4489 33.7636 13.7576 37.0266 17.8117 37.0012H18.8138L21.7763 40.1262C22.0769 40.4363 22.4903 40.6113 22.9221 40.6113C23.354 40.6113 23.7674 40.4363 24.068 40.1262L27.0305 37.0012H28.0326C32.0834 37.022 35.387 33.7604 35.418 29.7095V20.8345C35.387 16.7804 32.0784 13.5175 28.0242 13.5429H17.8159C13.7601 13.5152 10.4489 16.7788 10.418 20.8345V29.7095Z" stroke="#303857" stroke-width="3" stroke-linecap="round" stroke-linejoin="round"/>
<path d="M14.125 13.5429C14.125 14.3714 14.7966 15.0429 15.625 15.0429C16.4534 15.0429 17.125 14.3714 17.125 13.5429H14.125ZM33.2271 8.33459V9.83459C33.2363 9.83459 33.2456 9.83451 33.2549 9.83433L33.2271 8.33459ZM38.4026 10.367L37.3617 11.4471V11.4471L38.4026 10.367ZM40.625 15.4638H42.125C42.125 15.4545 42.1249 15.4453 42.1247 15.4361L40.625 15.4638ZM35.4167 29.7513C34.5882 29.7513 33.9167 30.4228 33.9167 31.2513C33.9167 32.0797 34.5882 32.7513 35.4167 32.7513V29.7513ZM16.6667 21.4179C15.8382 21.4179 15.1667 22.0895 15.1667 22.9179C15.1667 23.7464 15.8382 24.4179 16.6667 24.4179V21.4179ZM28.6771 24.4179C29.5055 24.4179 30.1771 23.7464 30.1771 22.9179C30.1771 22.0895 29.5055 21.4179 28.6771 21.4179V24.4179ZM18.1688 25.8096C17.3403 25.8096 16.6688 26.4812 16.6688 27.3096C16.6688 28.138 17.3403 28.8096 18.1688 28.8096V25.8096ZM27.175 28.8096C28.0034 28.8096 28.675 28.138 28.675 27.3096C28.675 26.4812 28.0034 25.8096 27.175 25.8096V28.8096ZM17.125 13.5429C17.125 12.0857 17.6896 11.2768 18.5674 10.7454C19.5615 10.1437 21.0857 9.83459 23.0187 9.83459V6.83459C20.8685 6.83459 18.6957 7.16095 17.0139 8.17896C15.2157 9.26743 14.125 11.0626 14.125 13.5429H17.125ZM23.0187 9.83459H33.2271V6.83459H23.0187V9.83459ZM33.2549 9.83433C34.7835 9.80601 36.2608 10.3861 37.3617 11.4471L39.4435 9.28686C37.7696 7.67381 35.5235 6.79179 33.1993 6.83485L33.2549 9.83433ZM37.3617 11.4471C38.4627 12.508 39.097 13.9628 39.1253 15.4915L42.1247 15.4361C42.0818 13.1119 41.1173 10.8999 39.4435 9.28686L37.3617 11.4471ZM39.125 15.4638V24.1221H42.125V15.4638H39.125ZM39.125 24.1221C39.125 26.0165 38.8632 27.4567 38.3003 28.3862C37.8228 29.1747 37.0401 29.7513 35.4167 29.7513V32.7513C37.9599 32.7513 39.7814 31.732 40.8664 29.9402C41.866 28.2896 42.125 26.1652 42.125 24.1221H39.125ZM16.6667 24.4179H28.6771V21.4179H16.6667V24.4179ZM18.1688 28.8096H27.175V25.8096H18.1688V28.8096Z" fill="#303857"/>
</svg>
