<svg width="50" height="50" viewBox="0 0 50 50" fill="none" xmlns="http://www.w3.org/2000/svg">
<path fill-rule="evenodd" clip-rule="evenodd" d="M13.491 25.9646C13.2493 19.3586 18.3982 13.8025 25.0035 13.5417C31.6087 13.8025 36.7577 19.3586 36.516 25.9646C36.516 28.7083 39.4972 31.3812 39.5847 34.1312C39.5847 34.1701 39.5847 34.209 39.5847 34.2479C39.6493 36.0098 38.2756 37.4915 36.5139 37.5604H29.8639C29.8701 38.9105 29.3612 40.2121 28.441 41.2C27.5562 42.1608 26.3096 42.7075 25.0035 42.7075C23.6973 42.7075 22.4508 42.1608 21.566 41.2C20.6458 40.2121 20.1369 38.9105 20.1431 37.5604H13.491C11.7293 37.4915 10.3556 36.0098 10.4202 34.2479C10.4202 34.209 10.4202 34.1701 10.4202 34.1312C10.5097 31.3896 13.491 28.7104 13.491 25.9646Z" stroke="#303857" stroke-width="3" stroke-linecap="round" stroke-linejoin="round"/>
<path d="M20.1445 36.0604C19.3161 36.0604 18.6445 36.732 18.6445 37.5604C18.6445 38.3888 19.3161 39.0604 20.1445 39.0604V36.0604ZM29.8654 39.0604C30.6938 39.0604 31.3654 38.3888 31.3654 37.5604C31.3654 36.732 30.6938 36.0604 29.8654 36.0604V39.0604ZM27.0883 10.875C27.9167 10.875 28.5883 10.2034 28.5883 9.375C28.5883 8.54657 27.9167 7.875 27.0883 7.875V10.875ZM22.9216 7.875C22.0932 7.875 21.4216 8.54657 21.4216 9.375C21.4216 10.2034 22.0932 10.875 22.9216 10.875V7.875ZM20.1445 39.0604H29.8654V36.0604H20.1445V39.0604ZM27.0883 7.875H22.9216V10.875H27.0883V7.875Z" fill="#303857"/>
</svg>
