<svg width="36" height="36" viewBox="0 0 36 36" fill="none" xmlns="http://www.w3.org/2000/svg">
<path d="M13.5 21C13.772 21.7085 14.2176 22.3372 14.796 22.8285C16.6354 24.3724 19.3123 24.392 21.174 22.875C21.7604 22.3924 22.2163 21.7704 22.5 21.066" stroke="#303857" stroke-width="2" stroke-linecap="round" stroke-linejoin="round"/>
<path fill-rule="evenodd" clip-rule="evenodd" d="M28.5 18C28.5 23.799 23.799 28.5 18 28.5C12.201 28.5 7.5 23.799 7.5 18C7.5 12.201 12.201 7.5 18 7.5C20.7848 7.5 23.4555 8.60625 25.4246 10.5754C27.3938 12.5445 28.5 15.2152 28.5 18Z" stroke="#303857" stroke-width="2" stroke-linecap="round" stroke-linejoin="round"/>
<path d="M13.5 16.5V15" stroke="#303857" stroke-width="2" stroke-linecap="round"/>
<path d="M22.5 16.5V15" stroke="#303857" stroke-width="2" stroke-linecap="round"/>
</svg>
