<svg xmlns="http://www.w3.org/2000/svg" xml:space="preserve" width="655.359" height="655.359" style="shape-rendering:geometricPrecision;text-rendering:geometricPrecision;image-rendering:optimizeQuality;fill-rule:evenodd;clip-rule:evenodd" viewBox="0 0 6.827 6.827"><defs><style>.fil3{fill:#8c8d8d;fill-rule:nonzero}</style></defs><g id="Layer_x0020_1"><path d="m.866 4.084.209-.526a.107.107 0 0 1 .11-.066l.038.001c.527.012 1.588.037 2.19.565.603-.528 1.664-.553 2.19-.565.064-.001.129-.005.152.075.072.175.139.35.21.525.008.027.03.103-.058.139a.106.106 0 0 1-.065.005c-.234-.045-.624-.018-1.034.081-.553.134-.799.38-1.197.507a.683.683 0 0 1-.395 0c-.4-.128-.649-.374-1.197-.507-.412-.1-.805-.126-1.038-.08-.111.026-.154-.08-.115-.154z" style="fill:#aeaeaf;fill-rule:nonzero"/><g id="_256414384"><path id="_256414360" d="M3.409 4.854a.656.656 0 0 1-.193-.029c-.4-.128-.649-.374-1.197-.507-.412-.1-.805-.126-1.038-.08-.111.026-.154-.08-.115-.154l.209-.526a.106.106 0 0 1 .027-.039l.262-.593.39-.884a.107.107 0 0 1 .104-.07v.001c.529.015 1.148.06 1.55.445v2.436z" style="fill:#b0b0b0"/><path id="_256414744" d="M3.413 2.423c.43-.416 1.147-.439 1.514-.449h.033a.107.107 0 0 1 .109.06v.001l.681 1.487a.106.106 0 0 1 .01.055c.069.172.135.345.205.516.008.027.03.103-.058.139a.106.106 0 0 1-.065.005c-.234-.045-.624-.018-1.034.081-.553.134-.799.38-1.197.507a.66.66 0 0 1-.202.03V2.417l.003.004h.001z" style="fill:#c5c6c6"/></g><path class="fil3" d="m.866 4.082.21-.527a.107.107 0 0 1 .11-.066l.038.001c.528.012 1.591.037 2.195.566.604-.53 1.667-.554 2.195-.566.063-.001.129-.005.152.075.072.175.139.352.21.526.008.028.03.104-.058.14a.106.106 0 0 1-.065.005c-.235-.045-.626-.018-1.036.081-.555.134-.8.38-1.2.508a.684.684 0 0 1-.396 0c-.401-.128-.65-.375-1.2-.508-.413-.1-.806-.126-1.04-.08-.111.026-.154-.08-.115-.155z"/><path d="M1.916 4.137C1.753 4.099.856 3.922.78 4.106c-.04.076.005.186.12.159.24-.047.646-.02 1.072.083.567.137.824.392 1.237.524.127.04.282.04.408 0 .412-.132.666-.386 1.238-.524.423-.102.826-.13 1.068-.084a.11.11 0 0 0 .068-.005c.099-.04.103-.2-.047-.218-.255-.03-.633.003-1.033.096-.594.138-.858.392-1.286.523a.76.76 0 0 1-.423 0c-.43-.132-.697-.386-1.286-.523z" style="fill:#2d2d2d"/><g id="_256412824"><path id="_256413952" class="fil3" d="M4.876 2.247a.035.035 0 0 0 .031-.038.034.034 0 0 0-.037-.032c-.214.02-.422.053-.624.104a3.006 3.006 0 0 0-.587.214.035.035 0 0 0-.016.047.034.034 0 0 0 .045.016c.184-.09.376-.158.574-.209a3.94 3.94 0 0 1 .614-.102z"/><path id="_256413616" class="fil3" d="M4.972 2.565a.035.035 0 0 0 .033-.038.036.036 0 0 0-.04-.032c-.226.02-.447.053-.66.104a3.306 3.306 0 0 0-.622.214.034.034 0 0 0-.017.047c.009.017.03.024.049.016a3.23 3.23 0 0 1 .607-.209c.21-.05.428-.083.65-.102z"/><path id="_256413568" class="fil3" d="M5.17 3.2c.021-.001.038-.018.036-.037-.002-.02-.021-.033-.043-.032-.25.02-.494.053-.73.104a3.916 3.916 0 0 0-.687.214c-.02.008-.028.03-.019.047.01.017.034.024.054.016.215-.09.44-.159.67-.209.233-.05.473-.083.718-.102z"/><path id="_256413520" class="fil3" d="M5.06 2.883c.02-.002.035-.019.034-.038-.002-.02-.02-.033-.04-.032-.235.02-.464.053-.685.104a3.502 3.502 0 0 0-.643.214.034.034 0 0 0-.018.047.039.039 0 0 0 .05.016c.202-.09.412-.158.63-.209.217-.05.442-.083.672-.102z"/><path id="_256413496" class="fil3" d="M1.949 2.247a.035.035 0 0 1-.031-.038.034.034 0 0 1 .037-.032c.213.02.422.053.624.104.203.052.399.122.587.214.017.009.024.03.016.047a.034.034 0 0 1-.046.016 2.938 2.938 0 0 0-.573-.209 3.94 3.94 0 0 0-.614-.102z"/><path id="_256413688" class="fil3" d="M1.853 2.565a.035.035 0 0 1-.033-.038.036.036 0 0 1 .04-.032c.225.02.446.053.66.104.215.052.422.122.622.214.018.009.025.03.017.047a.037.037 0 0 1-.049.016 3.23 3.23 0 0 0-.607-.209 4.395 4.395 0 0 0-.65-.102z"/><path id="_256413016" class="fil3" d="M1.765 2.883c-.02-.002-.036-.019-.034-.038.002-.02.02-.033.04-.032.235.02.463.053.685.104.222.052.437.122.643.214.019.008.026.03.017.047a.039.039 0 0 1-.05.016 3.422 3.422 0 0 0-.628-.209 4.696 4.696 0 0 0-.673-.102z"/><path id="_256412896" class="fil3" d="M1.655 3.2c-.022-.001-.038-.018-.036-.037.002-.02.021-.033.043-.032.25.02.494.053.73.104.237.052.467.122.687.214.02.008.028.03.018.047-.01.017-.033.024-.053.016a3.827 3.827 0 0 0-.671-.209 5.327 5.327 0 0 0-.718-.102z"/></g></g><path style="fill:none" d="M0 0h6.827v6.827H0z"/></svg>