<svg width="38" height="38" viewBox="0 0 38 38" fill="none" xmlns="http://www.w3.org/2000/svg">
<path d="M20.1112 12.4842C20.4566 12.0532 20.3873 11.4239 19.9563 11.0785C19.5254 10.7331 18.896 10.8024 18.5506 11.2334L20.1112 12.4842ZM9.99242 23.5105L10.7498 24.1635C10.7576 24.1545 10.7652 24.1453 10.7727 24.1359L9.99242 23.5105ZM9.72167 24.1724L8.72379 24.1073C8.72338 24.1136 8.72303 24.1198 8.72274 24.1261L9.72167 24.1724ZM9.5 28.9588L8.50107 28.9125C8.49877 28.9622 8.50018 29.0119 8.50528 29.0614L9.5 28.9588ZM10.7461 30.0465L10.7788 31.046C10.8455 31.0438 10.9118 31.035 10.9767 31.0196L10.7461 30.0465ZM15.4961 28.9208L15.7267 29.8938C15.7319 29.8926 15.7371 29.8913 15.7422 29.89L15.4961 28.9208ZM16.1057 28.5345L16.8771 29.1709L16.8858 29.1601L16.1057 28.5345ZM26.4491 17.2344C26.7947 16.8035 26.7255 16.1742 26.2946 15.8286C25.8637 15.4831 25.2344 15.5523 24.8889 15.9832L26.4491 17.2344ZM18.5556 11.2331C18.21 11.664 18.2792 12.2933 18.71 12.6389C19.1408 12.9844 19.7702 12.9153 20.1158 12.4844L18.5556 11.2331ZM21.85 8.72378L22.6301 9.34944C22.6432 9.33305 22.6559 9.31625 22.668 9.29907L21.85 8.72378ZM24.4293 8.21712L25.069 7.44853C25.0371 7.42202 25.0037 7.39752 24.9688 7.37516L24.4293 8.21712ZM27.9712 11.1653L28.6789 10.4588C28.6572 10.4371 28.6345 10.4164 28.6109 10.3967L27.9712 11.1653ZM28.5046 12.465L29.5046 12.4705V12.4705L28.5046 12.465ZM27.9569 13.7588L27.257 13.0446C27.2286 13.0724 27.202 13.1018 27.1771 13.1328L27.9569 13.7588ZM24.8892 15.9828C24.5435 16.4134 24.6123 17.0429 25.043 17.3886C25.4737 17.7343 26.1031 17.6655 26.4488 17.2348L24.8892 15.9828ZM20.3246 11.7106C20.2428 11.1644 19.7337 10.788 19.1875 10.8698C18.6413 10.9517 18.2649 11.4608 18.3467 12.007L20.3246 11.7106ZM25.8036 17.5997C26.3509 17.5253 26.7343 17.0214 26.6599 16.4741C26.5855 15.9269 26.0816 15.5435 25.5344 15.6179L25.8036 17.5997ZM18.5506 11.2334L9.21211 22.8851L10.7727 24.1359L20.1112 12.4842L18.5506 11.2334ZM9.23504 22.8576C8.93333 23.2075 8.75386 23.6462 8.72379 24.1073L10.7195 24.2374C10.7213 24.2102 10.7319 24.1842 10.7498 24.1635L9.23504 22.8576ZM8.72274 24.1261L8.50107 28.9125L10.4989 29.005L10.7206 24.2186L8.72274 24.1261ZM8.50528 29.0614C8.6245 30.2172 9.61742 31.084 10.7788 31.046L10.7134 29.0471C10.6017 29.0507 10.5062 28.9674 10.4947 28.8562L8.50528 29.0614ZM10.9767 31.0196L15.7267 29.8938L15.2655 27.9477L10.5155 29.0735L10.9767 31.0196ZM15.7422 29.89C16.1873 29.777 16.5848 29.525 16.8771 29.1708L15.3343 27.8981C15.3125 27.9244 15.283 27.9432 15.2499 27.9516L15.7422 29.89ZM16.8858 29.1601L26.4491 17.2344L24.8889 15.9832L15.3255 27.9088L16.8858 29.1601ZM20.1158 12.4844L22.6301 9.34944L21.0699 8.09813L18.5556 11.2331L20.1158 12.4844ZM22.668 9.29907C22.9452 8.90483 23.4839 8.79901 23.8897 9.05907L24.9688 7.37516C23.6612 6.5372 21.9255 6.87815 21.032 8.1485L22.668 9.29907ZM23.7895 8.9857L27.3314 11.9339L28.6109 10.3967L25.069 7.44853L23.7895 8.9857ZM27.2634 11.8717C27.419 12.0276 27.5059 12.2392 27.5047 12.4595L29.5046 12.4705C29.5088 11.7166 29.2115 10.9924 28.6789 10.4588L27.2634 11.8717ZM27.5047 12.4595C27.5035 12.6798 27.4143 12.8904 27.257 13.0446L28.6569 14.473C29.1953 13.9453 29.5005 13.2244 29.5046 12.4705L27.5047 12.4595ZM27.1771 13.1328L24.8892 15.9828L26.4488 17.2348L28.7367 14.3848L27.1771 13.1328ZM18.3467 12.007C18.8847 15.5968 22.2068 18.0884 25.8036 17.5997L25.5344 15.6179C23.0215 15.9593 20.7005 14.2186 20.3246 11.7106L18.3467 12.007Z" fill="#303857"/>
</svg>
