<svg width="18" height="20" viewBox="0 0 18 20" fill="none" xmlns="http://www.w3.org/2000/svg">
<path d="M10.0416 4.9876C10.387 4.55665 10.3176 3.92729 9.88664 3.5819C9.45569 3.2365 8.82634 3.30586 8.48094 3.73681L10.0416 4.9876ZM1.88875 13.561L2.64612 14.2139C2.65393 14.2049 2.66158 14.1957 2.66906 14.1863L1.88875 13.561ZM1.675 14.0835L0.67712 14.0184C0.676711 14.0246 0.676361 14.0309 0.676071 14.0372L1.675 14.0835ZM1.5 17.8622L0.501071 17.8159C0.498771 17.8656 0.500177 17.9154 0.505277 17.9648L1.5 17.8622ZM2.48375 18.721L2.51644 19.7204C2.58313 19.7182 2.64944 19.7094 2.71436 19.694L2.48375 18.721ZM6.23375 17.8322L6.46436 18.8053C6.46955 18.804 6.47474 18.8027 6.47991 18.8014L6.23375 17.8322ZM6.715 17.5272L7.48647 18.1636L7.49514 18.1528L6.715 17.5272ZM15.0451 8.73781C15.3907 8.30695 15.3215 7.67758 14.8906 7.33206C14.4597 6.98655 13.8304 7.05574 13.4849 7.4866L15.0451 8.73781ZM8.4849 3.73655C8.13936 4.16739 8.20851 4.79676 8.63934 5.1423C9.07018 5.48784 9.69956 5.4187 10.0451 4.98786L8.4849 3.73655ZM11.25 1.88721L12.0301 2.51286C12.0432 2.49647 12.0559 2.47968 12.068 2.46249L11.25 1.88721ZM13.2863 1.48721L13.926 0.718618C13.8941 0.69211 13.8607 0.667607 13.8258 0.645251L13.2863 1.48721ZM16.0825 3.81471L16.7903 3.10825C16.7686 3.08651 16.7459 3.06577 16.7222 3.04612L16.0825 3.81471ZM16.5037 4.8408L17.5037 4.84629V4.84629L16.5037 4.8408ZM16.0713 5.86221L15.3713 5.14802C15.343 5.1758 15.3163 5.20524 15.2914 5.23619L16.0713 5.86221ZM13.4852 7.48619C13.1395 7.91687 13.2083 8.54628 13.639 8.89202C14.0697 9.23775 14.6991 9.1689 15.0448 8.73822L13.4852 7.48619ZM10.254 4.21401C10.1721 3.66782 9.66299 3.2914 9.1168 3.37325C8.57061 3.4551 8.19419 3.96422 8.27604 4.5104L10.254 4.21401ZM14.3996 9.1031C14.9469 9.02874 15.3303 8.52482 15.2559 7.97757C15.1815 7.43031 14.6776 7.04695 14.1304 7.12131L14.3996 9.1031ZM9.26125 4.36221L8.48094 3.73681L1.10844 12.9356L1.88875 13.561L2.66906 14.1863L10.0416 4.9876L9.26125 4.36221ZM1.88875 13.561L1.13138 12.908C0.863304 13.2189 0.703836 13.6087 0.67712 14.0184L1.675 14.0835L2.67288 14.1485C2.67131 14.1727 2.66191 14.1956 2.64612 14.2139L1.88875 13.561ZM1.675 14.0835L0.676071 14.0372L0.501071 17.8159L1.5 17.8622L2.49893 17.9085L2.67393 14.1297L1.675 14.0835ZM1.5 17.8622L0.505277 17.9648C0.610739 18.9873 1.48909 19.754 2.51644 19.7204L2.48375 18.721L2.45106 17.7215C2.47336 17.7208 2.49243 17.7374 2.49472 17.7596L1.5 17.8622ZM2.48375 18.721L2.71436 19.694L6.46436 18.8053L6.23375 17.8322L6.00314 16.8592L2.25314 17.7479L2.48375 18.721ZM6.23375 17.8322L6.47991 18.8014C6.87467 18.7012 7.22722 18.4777 7.4864 18.1636L6.715 17.5272L5.9436 16.8909C5.95493 16.8771 5.97034 16.8674 5.98759 16.863L6.23375 17.8322ZM6.715 17.5272L7.49514 18.1528L15.0451 8.73781L14.265 8.11221L13.4849 7.4866L5.93486 16.9016L6.715 17.5272ZM9.265 4.36221L10.0451 4.98786L12.0301 2.51286L11.25 1.88721L10.4699 1.26155L8.4849 3.73655L9.265 4.36221ZM11.25 1.88721L12.068 2.46249C12.222 2.24347 12.5212 2.18468 12.7467 2.32916L13.2863 1.48721L13.8258 0.645251C12.6985 -0.0771301 11.2023 0.216794 10.432 1.31192L11.25 1.88721ZM13.2863 1.48721L12.6465 2.25579L15.4428 4.58329L16.0825 3.81471L16.7222 3.04612L13.926 0.718618L13.2863 1.48721ZM16.0825 3.81471L15.3747 4.52116C15.4579 4.60448 15.5043 4.71758 15.5037 4.83531L16.5037 4.8408L17.5037 4.84629C17.5072 4.19498 17.2504 3.56924 16.7903 3.10825L16.0825 3.81471ZM16.5037 4.8408L15.5037 4.83531C15.503 4.95303 15.4554 5.06561 15.3713 5.14802L16.0713 5.86221L16.7712 6.57639C17.2364 6.12049 17.5001 5.49761 17.5037 4.84629L16.5037 4.8408ZM16.0713 5.86221L15.2914 5.23619L13.4852 7.48619L14.265 8.11221L15.0448 8.73822L16.8511 6.48822L16.0713 5.86221ZM9.265 4.36221L8.27604 4.5104C8.7178 7.45833 11.4459 9.50443 14.3996 9.1031L14.265 8.11221L14.1304 7.12131C12.2606 7.37537 10.5336 6.08012 10.254 4.21401L9.265 4.36221Z" fill="#303857"/>
</svg>
