<svg width="22" height="26" viewBox="0 0 22 26" fill="none" xmlns="http://www.w3.org/2000/svg">
<path d="M12.1112 6.48418C12.4566 6.05322 12.3873 5.42387 11.9563 5.07847C11.5254 4.73308 10.896 4.80244 10.5506 5.23339L12.1112 6.48418ZM1.99242 17.5105L2.74979 18.1635C2.7576 18.1545 2.76525 18.1453 2.77273 18.1359L1.99242 17.5105ZM1.72167 18.1724L0.723786 18.1073C0.723378 18.1136 0.723028 18.1198 0.722737 18.1261L1.72167 18.1724ZM1.5 22.9588L0.501071 22.9125C0.498771 22.9622 0.500177 23.0119 0.505277 23.0614L1.5 22.9588ZM2.74608 24.0465L2.77878 25.046C2.84547 25.0438 2.91177 25.035 2.9767 25.0196L2.74608 24.0465ZM7.49608 22.9208L7.7267 23.8938C7.73189 23.8926 7.73707 23.8913 7.74224 23.89L7.49608 22.9208ZM8.10567 22.5345L8.87714 23.1709L8.88581 23.1601L8.10567 22.5345ZM18.4491 11.2344C18.7947 10.8035 18.7255 10.1742 18.2946 9.82864C17.8637 9.48313 17.2344 9.55232 16.8889 9.98318L18.4491 11.2344ZM10.5556 5.23313C10.21 5.66396 10.2792 6.29334 10.71 6.63888C11.1408 6.98442 11.7702 6.91528 12.1158 6.48444L10.5556 5.23313ZM13.85 2.72378L14.6301 3.34944C14.6432 3.33305 14.6559 3.31625 14.668 3.29907L13.85 2.72378ZM16.4293 2.21712L17.069 1.44853C17.0371 1.42202 17.0037 1.39752 16.9688 1.37516L16.4293 2.21712ZM19.9712 5.16528L20.6789 4.45883C20.6572 4.43708 20.6345 4.41635 20.6109 4.3967L19.9712 5.16528ZM20.5046 6.465L21.5046 6.4705V6.4705L20.5046 6.465ZM19.9569 7.75878L19.257 7.04459C19.2286 7.07238 19.202 7.10182 19.1771 7.13277L19.9569 7.75878ZM16.8892 9.98277C16.5435 10.4134 16.6123 11.0429 17.043 11.3886C17.4737 11.7343 18.1031 11.6655 18.4488 11.2348L16.8892 9.98277ZM12.3246 5.71058C12.2428 5.1644 11.7337 4.78798 11.1875 4.86983C10.6413 4.95167 10.2649 5.4608 10.3467 6.00698L12.3246 5.71058ZM17.8036 11.5997C18.3509 11.5253 18.7343 11.0214 18.6599 10.4741C18.5855 9.92689 18.0816 9.54353 17.5344 9.61789L17.8036 11.5997ZM10.5506 5.23339L1.21211 16.8851L2.77273 18.1359L12.1112 6.48418L10.5506 5.23339ZM1.23504 16.8576C0.933333 17.2075 0.753855 17.6462 0.723786 18.1073L2.71955 18.2374C2.72133 18.2102 2.73194 18.1842 2.74979 18.1635L1.23504 16.8576ZM0.722737 18.1261L0.501071 22.9125L2.49893 23.005L2.7206 18.2186L0.722737 18.1261ZM0.505277 23.0614C0.624495 24.2172 1.61742 25.084 2.77878 25.046L2.71339 23.0471C2.60169 23.0507 2.50619 22.9674 2.49472 22.8562L0.505277 23.0614ZM2.9767 25.0196L7.7267 23.8938L7.26547 21.9477L2.51547 23.0735L2.9767 25.0196ZM7.74224 23.89C8.18734 23.777 8.58484 23.525 8.87707 23.1708L7.33427 21.8981C7.31255 21.9244 7.28301 21.9432 7.24992 21.9516L7.74224 23.89ZM8.88581 23.1601L18.4491 11.2344L16.8889 9.98318L7.32553 21.9088L8.88581 23.1601ZM12.1158 6.48444L14.6301 3.34944L13.0699 2.09813L10.5556 5.23313L12.1158 6.48444ZM14.668 3.29907C14.9452 2.90483 15.4839 2.79901 15.8897 3.05907L16.9688 1.37516C15.6612 0.5372 13.9255 0.878152 13.032 2.1485L14.668 3.29907ZM15.7895 2.9857L19.3314 5.93387L20.6109 4.3967L17.069 1.44853L15.7895 2.9857ZM19.2634 5.87174C19.419 6.02763 19.5059 6.23924 19.5047 6.45951L21.5046 6.4705C21.5088 5.71664 21.2115 4.99239 20.6789 4.45883L19.2634 5.87174ZM19.5047 6.45951C19.5035 6.67977 19.4143 6.89042 19.257 7.04459L20.6569 8.47297C21.1953 7.9453 21.5005 7.22435 21.5046 6.4705L19.5047 6.45951ZM19.1771 7.13277L16.8892 9.98277L18.4488 11.2348L20.7367 8.3848L19.1771 7.13277ZM10.3467 6.00698C10.8847 9.59678 14.2068 12.0884 17.8036 11.5997L17.5344 9.61789C15.0215 9.95933 12.7005 8.21857 12.3246 5.71058L10.3467 6.00698Z" fill="#F9F9F9"/>
</svg>
