<svg width="30" height="30" viewBox="0 0 30 30" fill="none" xmlns="http://www.w3.org/2000/svg">
<path d="M16.0416 9.9876C16.387 9.55665 16.3176 8.92729 15.8866 8.5819C15.4557 8.2365 14.8263 8.30586 14.4809 8.73681L16.0416 9.9876ZM7.88875 18.561L8.64612 19.2139C8.65393 19.2049 8.66158 19.1957 8.66906 19.1863L7.88875 18.561ZM7.675 19.0835L6.67712 19.0184C6.67671 19.0246 6.67636 19.0309 6.67607 19.0372L7.675 19.0835ZM7.5 22.8622L6.50107 22.8159C6.49877 22.8656 6.50018 22.9154 6.50528 22.9648L7.5 22.8622ZM8.48375 23.721L8.51644 24.7204C8.58313 24.7182 8.64944 24.7094 8.71436 24.694L8.48375 23.721ZM12.2337 22.8322L12.4644 23.8053C12.4696 23.804 12.4747 23.8027 12.4799 23.8014L12.2337 22.8322ZM12.715 22.5272L13.4865 23.1636L13.4951 23.1528L12.715 22.5272ZM21.0451 13.7378C21.3907 13.3069 21.3215 12.6776 20.8906 12.3321C20.4597 11.9866 19.8304 12.0557 19.4849 12.4866L21.0451 13.7378ZM14.4849 8.73655C14.1394 9.16739 14.2085 9.79676 14.6393 10.1423C15.0702 10.4878 15.6996 10.4187 16.0451 9.98786L14.4849 8.73655ZM17.25 6.88721L18.0301 7.51286C18.0432 7.49647 18.0559 7.47968 18.068 7.46249L17.25 6.88721ZM19.2863 6.48721L19.926 5.71862C19.8941 5.69211 19.8607 5.66761 19.8258 5.64525L19.2863 6.48721ZM22.0825 8.81471L22.7903 8.10825C22.7686 8.08651 22.7459 8.06577 22.7222 8.04612L22.0825 8.81471ZM22.5037 9.8408L23.5037 9.84629L23.5037 9.84629L22.5037 9.8408ZM22.0713 10.8622L21.3713 10.148C21.343 10.1758 21.3163 10.2052 21.2914 10.2362L22.0713 10.8622ZM19.4852 12.4862C19.1395 12.9169 19.2083 13.5463 19.639 13.892C20.0697 14.2378 20.6991 14.1689 21.0448 13.7382L19.4852 12.4862ZM16.254 9.21401C16.1721 8.66782 15.663 8.2914 15.1168 8.37325C14.5706 8.4551 14.1942 8.96422 14.276 9.5104L16.254 9.21401ZM20.3996 14.1031C20.9469 14.0287 21.3303 13.5248 21.2559 12.9776C21.1815 12.4303 20.6776 12.047 20.1304 12.1213L20.3996 14.1031ZM14.4809 8.73681L7.10844 17.9356L8.66906 19.1863L16.0416 9.9876L14.4809 8.73681ZM7.13138 17.908C6.8633 18.2189 6.70384 18.6087 6.67712 19.0184L8.67288 19.1485C8.67131 19.1727 8.66191 19.1956 8.64612 19.2139L7.13138 17.908ZM6.67607 19.0372L6.50107 22.8159L8.49893 22.9085L8.67393 19.1297L6.67607 19.0372ZM6.50528 22.9648C6.61074 23.9873 7.48909 24.754 8.51644 24.7204L8.45106 22.7215C8.47336 22.7208 8.49243 22.7374 8.49472 22.7596L6.50528 22.9648ZM8.71436 24.694L12.4644 23.8053L12.0031 21.8592L8.25314 22.7479L8.71436 24.694ZM12.4799 23.8014C12.8747 23.7012 13.2272 23.4777 13.4864 23.1636L11.9436 21.8909C11.9549 21.8771 11.9703 21.8674 11.9876 21.863L12.4799 23.8014ZM13.4951 23.1528L21.0451 13.7378L19.4849 12.4866L11.9349 21.9016L13.4951 23.1528ZM16.0451 9.98786L18.0301 7.51286L16.4699 6.26155L14.4849 8.73655L16.0451 9.98786ZM18.068 7.46249C18.222 7.24347 18.5212 7.18468 18.7467 7.32916L19.8258 5.64525C18.6985 4.92287 17.2023 5.21679 16.432 6.31192L18.068 7.46249ZM18.6465 7.25579L21.4428 9.58329L22.7222 8.04612L19.926 5.71862L18.6465 7.25579ZM21.3747 9.52116C21.4579 9.60448 21.5043 9.71758 21.5037 9.83531L23.5037 9.84629C23.5072 9.19498 23.2504 8.56924 22.7903 8.10825L21.3747 9.52116ZM21.5037 9.83531C21.503 9.95303 21.4554 10.0656 21.3713 10.148L22.7712 11.5764C23.2364 11.1205 23.5001 10.4976 23.5037 9.84629L21.5037 9.83531ZM21.2914 10.2362L19.4852 12.4862L21.0448 13.7382L22.8511 11.4882L21.2914 10.2362ZM14.276 9.5104C14.7178 12.4583 17.4459 14.5044 20.3996 14.1031L20.1304 12.1213C18.2606 12.3754 16.5336 11.0801 16.254 9.21401L14.276 9.5104Z" fill="#303857"/>
</svg>
