<svg width="92" height="246" viewBox="0 0 92 246" fill="none" xmlns="http://www.w3.org/2000/svg">
<path d="M34 0.5C33.1716 0.5 32.5 1.17157 32.5 2C32.5 2.82843 33.1716 3.5 34 3.5V0.5ZM0.439339 232.939C-0.146446 233.525 -0.146446 234.475 0.439339 235.061L9.98528 244.607C10.5711 245.192 11.5208 245.192 12.1066 244.607C12.6924 244.021 12.6924 243.071 12.1066 242.485L3.62132 234L12.1066 225.515C12.6924 224.929 12.6924 223.979 12.1066 223.393C11.5208 222.808 10.5711 222.808 9.98528 223.393L0.439339 232.939ZM34 2V3.5L85 3.5V2V0.5L34 0.5V2ZM90 7H88.5L88.5 229H90H91.5L91.5 7H90ZM85 234V232.5H1.5V234V235.5H85V234ZM90 229H88.5C88.5 230.933 86.933 232.5 85 232.5V234V235.5C88.5899 235.5 91.5 232.59 91.5 229H90ZM85 2V3.5C86.933 3.5 88.5 5.067 88.5 7H90H91.5C91.5 3.41015 88.5898 0.5 85 0.5V2Z" fill="#303857" fill-opacity="0.5"/>
</svg>
