<svg width="40" height="40" viewBox="0 0 40 40" fill="none" xmlns="http://www.w3.org/2000/svg">
<path d="M7.31972 30.5246L7.62735 30.885L8.00373 30.5972C9.66092 29.3299 11.5148 28.3292 13.5682 27.5959C15.6125 26.8658 17.7555 26.5 20 26.5C22.2445 26.5 24.3875 26.8658 26.4318 27.5959C28.4852 28.3292 30.3391 29.3299 31.9963 30.5972L32.3727 30.885L32.6803 30.5246C33.8858 29.1124 34.8234 27.5116 35.4932 25.7256C36.1655 23.9327 36.5 22.0229 36.5 20C36.5 15.4349 34.8896 11.5325 31.6786 8.32145C28.4675 5.1104 24.5651 3.5 20 3.5C15.4349 3.5 11.5325 5.1104 8.32145 8.32145C5.1104 11.5325 3.5 15.4349 3.5 20C3.5 22.0229 3.8345 23.9327 4.50684 25.7256C5.17662 27.5116 6.11418 29.1124 7.31972 30.5246ZM20 21.5C18.1615 21.5 16.6317 20.8746 15.3786 19.6214C14.1254 18.3683 13.5 16.8385 13.5 15C13.5 13.1615 14.1254 11.6317 15.3786 10.3786C16.6317 9.12543 18.1615 8.5 20 8.5C21.8385 8.5 23.3683 9.12543 24.6214 10.3786C25.8746 11.6317 26.5 13.1615 26.5 15C26.5 16.8385 25.8746 18.3683 24.6214 19.6214C23.3683 20.8746 21.8385 21.5 20 21.5ZM20 39.5C17.2984 39.5 14.7661 38.9877 12.3981 37.9659C10.0204 36.9399 7.95704 35.5499 6.20355 33.7964C4.45007 32.043 3.06009 29.9796 2.03408 27.6019C1.01226 25.2339 0.5 22.7016 0.5 20C0.5 17.2984 1.01226 14.7661 2.03408 12.3981C3.06009 10.0204 4.45007 7.95704 6.20355 6.20355C7.95704 4.45007 10.0204 3.06009 12.3981 2.03408C14.7661 1.01226 17.2984 0.5 20 0.5C22.7016 0.5 25.2339 1.01226 27.6019 2.03408C29.9796 3.06009 32.043 4.45007 33.7964 6.20355C35.5499 7.95704 36.9399 10.0204 37.9659 12.3981C38.9877 14.7661 39.5 17.2984 39.5 20C39.5 22.7016 38.9877 25.2339 37.9659 27.6019C36.9399 29.9796 35.5499 32.043 33.7964 33.7964C32.043 35.5499 29.9796 36.9399 27.6019 37.9659C25.2339 38.9877 22.7016 39.5 20 39.5Z" fill="#F9F9F9" stroke="#303857"/>
</svg>
