<svg width="63" height="63" viewBox="0 0 63 63" fill="none" xmlns="http://www.w3.org/2000/svg">
<path fill-rule="evenodd" clip-rule="evenodd" d="M20.3423 45.5663C18.6148 45.8641 16.8421 45.4139 15.4661 44.3278C14.0901 43.2417 13.2404 41.6221 13.1288 39.8727V21.0724C13.0484 19.0996 14.2484 17.2997 16.1003 16.6152C21.5397 14.619 27.6465 16.1478 31.5038 20.4713V47.3014C28.9182 45.1279 24.4504 44.9967 20.3423 45.5663Z" stroke="#F9F9F9" stroke-width="3" stroke-linecap="round" stroke-linejoin="round"/>
<path fill-rule="evenodd" clip-rule="evenodd" d="M42.6654 45.5663C44.3929 45.8641 46.1656 45.4139 47.5416 44.3278C48.9176 43.2417 49.7673 41.6221 49.8789 39.8727V21.0724C49.9593 19.0996 48.7594 17.2997 46.9074 16.6152C41.468 14.619 35.3612 16.1478 31.5039 20.4713V47.3014C34.0895 45.1279 38.5573 44.9967 42.6654 45.5663Z" stroke="#F9F9F9" stroke-width="3" stroke-linecap="round" stroke-linejoin="round"/>
<path d="M24.9414 30.4263C25.7698 30.4263 26.4414 29.7547 26.4414 28.9263C26.4414 28.0978 25.7698 27.4263 24.9414 27.4263V30.4263ZM19.6914 27.4263C18.863 27.4263 18.1914 28.0978 18.1914 28.9263C18.1914 29.7547 18.863 30.4263 19.6914 30.4263V27.4263ZM24.9414 35.6763C25.7698 35.6763 26.4414 35.0047 26.4414 34.1763C26.4414 33.3478 25.7698 32.6763 24.9414 32.6763V35.6763ZM19.6914 32.6763C18.863 32.6763 18.1914 33.3478 18.1914 34.1763C18.1914 35.0047 18.863 35.6763 19.6914 35.6763V32.6763ZM43.3164 30.4263C44.1448 30.4263 44.8164 29.7547 44.8164 28.9263C44.8164 28.0978 44.1448 27.4263 43.3164 27.4263V30.4263ZM38.0664 27.4263C37.238 27.4263 36.5664 28.0978 36.5664 28.9263C36.5664 29.7547 37.238 30.4263 38.0664 30.4263V27.4263ZM43.3164 35.6763C44.1448 35.6763 44.8164 35.0047 44.8164 34.1763C44.8164 33.3478 44.1448 32.6763 43.3164 32.6763V35.6763ZM38.0664 32.6763C37.238 32.6763 36.5664 33.3478 36.5664 34.1763C36.5664 35.0047 37.238 35.6763 38.0664 35.6763V32.6763ZM24.9414 27.4263H19.6914V30.4263H24.9414V27.4263ZM24.9414 32.6763H19.6914V35.6763H24.9414V32.6763ZM43.3164 27.4263H38.0664V30.4263H43.3164V27.4263ZM43.3164 32.6763H38.0664V35.6763H43.3164V32.6763Z" fill="#F9F9F9"/>
</svg>
