<svg width="64" height="64" viewBox="0 0 64 64" fill="none" xmlns="http://www.w3.org/2000/svg">
<path d="M27.0099 32.2998C26.5303 32.5736 26.3634 33.1844 26.6372 33.664C26.9109 34.1437 27.5217 34.3106 28.0014 34.0368L27.0099 32.2998ZM44.3534 24.7035C44.833 24.4297 44.9999 23.8189 44.7261 23.3393C44.4524 22.8596 43.8416 22.6927 43.3619 22.9665L44.3534 24.7035ZM27.7619 32.2017C27.228 32.0602 26.6806 32.3782 26.539 32.9121C26.3975 33.4459 26.7156 33.9934 27.2494 34.1349L27.7619 32.2017ZM33.6974 35.8442C34.2312 35.9858 34.7787 35.6677 34.9203 35.1339C35.0618 34.6 34.7437 34.0525 34.2099 33.911L33.6974 35.8442ZM26.5405 32.9067C26.396 33.4398 26.711 33.989 27.2441 34.1335C27.7771 34.278 28.3264 33.9629 28.4708 33.4299L26.5405 32.9067ZM30.1988 27.0539C30.3433 26.5208 30.0283 25.9716 29.4952 25.8271C28.9622 25.6827 28.4129 25.9977 28.2685 26.5307L30.1988 27.0539ZM44.0772 22.8594C43.5384 22.7381 43.0033 23.0766 42.882 23.6154C42.7608 24.1542 43.0993 24.6893 43.6381 24.8106L44.0772 22.8594ZM53.1181 26.9439C53.6569 27.0652 54.192 26.7267 54.3132 26.1878C54.4345 25.649 54.096 25.114 53.5572 24.9927L53.1181 26.9439ZM42.8985 23.5522C42.7423 24.0819 43.0451 24.638 43.5749 24.7942C44.1046 24.9503 44.6607 24.6475 44.8168 24.1177L42.8985 23.5522ZM47.5982 14.6831C47.7543 14.1533 47.4515 13.5973 46.9217 13.4411C46.392 13.2849 45.836 13.5878 45.6798 14.1175L47.5982 14.6831ZM49.4283 32.0001C49.4282 31.4478 48.9804 31.0002 48.4281 31.0003C47.8758 31.0004 47.4282 31.4482 47.4283 32.0005L49.4283 32.0001ZM47.7856 36.8323L48.7504 37.0956L48.7508 37.0939L47.7856 36.8323ZM38.9856 48.1656L38.4916 47.2962L38.4905 47.2968L38.9856 48.1656ZM18.0523 46.8083L17.448 47.605L17.4491 47.6059L18.0523 46.8083ZM13.199 41.3336L14.0624 40.8292L14.0619 40.8284L13.199 41.3336ZM12.615 23.7336L11.721 23.2856L11.7204 23.2867L12.615 23.7336ZM20.1083 15.835L20.6028 16.7042L20.6036 16.7037L20.1083 15.835ZM38.4931 16.7037C38.9729 16.9772 39.5835 16.81 39.8571 16.3302C40.1306 15.8504 39.9634 15.2397 39.4836 14.9662L38.4931 16.7037ZM42.3483 32.0006C42.3485 31.4483 41.9009 31.0004 41.3486 31.0003C40.7963 31.0002 40.3485 31.4478 40.3483 32L42.3483 32.0006ZM40.9456 35.019L41.9104 35.282L41.9107 35.2808L40.9456 35.019ZM35.447 42.1043L34.9527 41.235L34.9519 41.2355L35.447 42.1043ZM22.3643 41.2563L21.7602 42.0532L21.7612 42.0539L22.3643 41.2563ZM19.3296 37.835L20.1929 37.3303L20.1927 37.3299L19.3296 37.835ZM18.9643 26.8403L18.0701 26.3927L18.0696 26.3936L18.9643 26.8403ZM23.6496 21.8963L24.1446 22.7652L24.1448 22.7651L23.6496 21.8963ZM34.9545 22.7651C35.4343 23.0386 36.0449 22.8713 36.3184 22.3915C36.5919 21.9117 36.4247 21.301 35.9448 21.0275L34.9545 22.7651ZM28.0014 34.0368L44.3534 24.7035L43.3619 22.9665L27.0099 32.2998L28.0014 34.0368ZM27.2494 34.1349L33.6974 35.8442L34.2099 33.911L27.7619 32.2017L27.2494 34.1349ZM28.4708 33.4299L30.1988 27.0539L28.2685 26.5307L26.5405 32.9067L28.4708 33.4299ZM43.6381 24.8106L53.1181 26.9439L53.5572 24.9927L44.0772 22.8594L43.6381 24.8106ZM44.8168 24.1177L47.5982 14.6831L45.6798 14.1175L42.8985 23.5522L44.8168 24.1177ZM47.4283 32.0005C47.4286 33.5441 47.2242 35.0809 46.8205 36.5707L48.7508 37.0939C49.2008 35.4334 49.4286 33.7205 49.4283 32.0001L47.4283 32.0005ZM46.8209 36.5691C45.5817 41.1103 42.5843 44.9706 38.4916 47.2962L39.4797 49.0351C44.0349 46.4467 47.3711 42.15 48.7504 37.0956L46.8209 36.5691ZM38.4905 47.2968C32.2164 50.8726 24.4153 50.3668 18.6555 46.0107L17.4491 47.6059C23.8468 52.4444 32.5119 53.0062 39.4808 49.0344L38.4905 47.2968ZM18.6567 46.0116C16.7995 44.6029 15.2383 42.8418 14.0624 40.8292L12.3356 41.8381C13.6441 44.0777 15.3814 46.0374 17.448 47.605L18.6567 46.0116ZM14.0619 40.8284C11.0762 35.7291 10.8684 29.4666 13.5095 24.1806L11.7204 23.2867C8.77713 29.1774 9.0087 36.1563 12.336 41.8389L14.0619 40.8284ZM13.509 24.1817C15.0822 21.0426 17.5508 18.4404 20.6028 16.7042L19.6138 14.9658C16.2181 16.8976 13.4714 19.7929 11.721 23.2856L13.509 24.1817ZM20.6036 16.7037C26.1479 13.5431 32.9487 13.5431 38.4931 16.7037L39.4836 14.9662C33.3252 11.4556 25.7714 11.4556 19.6131 14.9662L20.6036 16.7037ZM40.3483 32C40.3481 32.9313 40.2244 33.8584 39.9805 34.7571L41.9107 35.2808C42.2009 34.2116 42.348 33.1085 42.3483 32.0006L40.3483 32ZM39.9808 34.756C39.2333 37.4985 37.4238 39.8301 34.9527 41.235L35.9412 42.9736C38.8748 41.3058 41.023 38.5378 41.9104 35.282L39.9808 34.756ZM34.9519 41.2355C31.161 43.3958 26.4477 43.0903 22.9675 40.4587L21.7612 42.0539C25.8793 45.1679 31.4565 45.5294 35.9421 42.9731L34.9519 41.2355ZM22.9684 40.4594C21.8466 39.6089 20.9034 38.5456 20.1929 37.3303L18.4663 38.3397C19.3095 39.782 20.4288 41.0439 21.7602 42.0532L22.9684 40.4594ZM20.1927 37.3299C18.3924 34.2535 18.2669 30.4761 19.859 27.287L18.0696 26.3936C16.1757 30.1872 16.325 34.6806 18.4666 38.3401L20.1927 37.3299ZM19.8586 27.2879C20.8086 25.3897 22.3001 23.8158 24.1446 22.7652L23.1547 21.0274C20.9666 22.2737 19.1971 24.1408 18.0701 26.3927L19.8586 27.2879ZM24.1448 22.7651C27.495 20.8555 31.6042 20.8555 34.9545 22.7651L35.9448 21.0275C31.9807 18.7681 27.1186 18.7681 23.1545 21.0275L24.1448 22.7651Z" fill="#F9F9F9"/>
</svg>
