<svg width="40" height="40" viewBox="0 0 40 40" fill="none" xmlns="http://www.w3.org/2000/svg">
<rect width="40" height="40" rx="20" transform="matrix(-1 0 0 1 40 0)" fill="#F5F5FA"/>
<path fill-rule="evenodd" clip-rule="evenodd" d="M28 19C28 15.134 24.866 12 21 12C17.134 12 14 15.134 14 19C14 20.886 14.7459 22.5978 15.9587 23.8565C15.9929 23.8828 16.0258 23.9116 16.0571 23.9429C16.0884 23.9742 16.1172 24.0071 16.1435 24.0413C17.4022 25.2541 19.114 26 21 26C24.866 26 28 22.866 28 19ZM15.3823 26.0319C16.922 27.2635 18.875 28 21 28C25.9706 28 30 23.9706 30 19C30 14.0294 25.9706 10 21 10C16.0294 10 12 14.0294 12 19C12 21.125 12.7365 23.078 13.9681 24.6177L10.2929 28.2929C9.90234 28.6834 9.90234 29.3166 10.2929 29.7071C10.6834 30.0976 11.3166 30.0976 11.7071 29.7071L15.3823 26.0319Z" fill="#303857"/>
</svg>
