<svg width="53" height="53" viewBox="0 0 53 53" fill="none" xmlns="http://www.w3.org/2000/svg">
<path d="M14.3405 20.9383C14.9277 20.354 14.9301 19.4042 14.3458 18.817C13.7615 18.2297 12.8117 18.2274 12.2245 18.8117L14.3405 20.9383ZM5.56634 25.4367C4.97909 26.021 4.97672 26.9708 5.56105 27.558C6.14537 28.1453 7.09512 28.1476 7.68236 27.5633L5.56634 25.4367ZM7.68236 25.4367C7.09512 24.8524 6.14537 24.8547 5.56105 25.442C4.97672 26.0292 4.97909 26.979 5.56634 27.5633L7.68236 25.4367ZM12.2245 34.1883C12.8117 34.7726 13.7615 34.7703 14.3458 34.183C14.9301 33.5958 14.9277 32.646 14.3405 32.0617L12.2245 34.1883ZM6.62435 25C5.79592 25 5.12435 25.6716 5.12435 26.5C5.12435 27.3284 5.79592 28 6.62435 28V25ZM37.541 28C38.3694 28 39.041 27.3284 39.041 26.5C39.041 25.6716 38.3694 25 37.541 25V28ZM12.2245 18.8117L5.56634 25.4367L7.68236 27.5633L14.3405 20.9383L12.2245 18.8117ZM5.56634 27.5633L12.2245 34.1883L14.3405 32.0617L7.68236 25.4367L5.56634 27.5633ZM6.62435 28L37.541 28V25L6.62435 25V28Z" fill="#F9F9F9"/>
<path d="M19.875 33.1251C19.875 38.0036 23.8298 41.9584 28.7083 41.9584H37.5417C42.4202 41.9584 46.375 38.0036 46.375 33.1251V19.8751C46.375 14.9966 42.4202 11.0417 37.5417 11.0417H28.7083C23.8298 11.0417 19.875 14.9966 19.875 19.8751" stroke="#F9F9F9" stroke-width="3" stroke-linecap="round" stroke-linejoin="round"/>
</svg>
