<svg width="21" height="21" viewBox="0 0 21 21" fill="none" xmlns="http://www.w3.org/2000/svg">
<g clip-path="url(#clip0_355_777)">
<path d="M4.93245 12.5863L4.23627 15.1853L1.69176 15.2391C0.93133 13.8286 0.5 12.2149 0.5 10.5001C0.5 8.84185 0.903283 7.2781 1.61813 5.90118H1.61868L3.884 6.3165L4.87635 8.56822C4.66865 9.17372 4.55545 9.82372 4.55545 10.5001C4.55553 11.2342 4.6885 11.9375 4.93245 12.5863Z" fill="#FBBB00"/>
<path d="M20.3252 8.63165C20.4401 9.23657 20.4999 9.8613 20.4999 10.4998C20.4999 11.2157 20.4247 11.9141 20.2813 12.5877C19.7945 14.88 18.5225 16.8817 16.7604 18.2981L16.7598 18.2976L13.9065 18.152L13.5027 15.6311C14.6719 14.9454 15.5857 13.8723 16.067 12.5877H10.7197V8.63165H16.145H20.3252Z" fill="#518EF8"/>
<path d="M16.7596 18.2979L16.7602 18.2984C15.0464 19.6759 12.8695 20.5001 10.4997 20.5001C6.69143 20.5001 3.38044 18.3715 1.69141 15.2391L4.93209 12.5864C5.77659 14.8402 7.95078 16.4446 10.4997 16.4446C11.5953 16.4446 12.6217 16.1484 13.5024 15.6314L16.7596 18.2979Z" fill="#28B446"/>
<path d="M16.8831 2.80219L13.6435 5.45437C12.732 4.88461 11.6545 4.55547 10.5001 4.55547C7.89347 4.55547 5.67862 6.23348 4.87642 8.56812L1.61871 5.90109H1.61816C3.28247 2.6923 6.63522 0.5 10.5001 0.5C12.9265 0.5 15.1512 1.3643 16.8831 2.80219Z" fill="#F14336"/>
</g>
<defs>
<clipPath id="clip0_355_777">
<rect width="20.0001" height="20" fill="white" transform="translate(0.5 0.5)"/>
</clipPath>
</defs>
</svg>
